<svg width="128" height="128" viewBox="0 0 128 128" fill="none" xmlns="http://www.w3.org/2000/svg">
<g clip-path="url(#clip0_1_4)">
<rect width="128" height="128" fill="white"/>
<path d="M32.2007 69.966C29.6025 69.966 27.5901 70.7561 26.1125 72.3862C24.9156 70.7816 23.1066 69.966 20.6864 69.966C18.5214 69.966 16.7886 70.6788 15.6171 72.0547V70.2975H12V83.0342H15.8205V74.7302C16.5588 73.7367 17.8584 73.2272 19.6664 73.2272C22.29 73.2272 23.5133 74.2461 23.5133 76.4874V83.0342H27.3338V74.7302C28.0721 73.7367 29.3717 73.2272 31.1797 73.2272C33.8033 73.2272 35.0267 74.2461 35.0267 76.4874V83.0342H38.8472V76.462C38.8472 72.3862 36.3761 69.966 32.1987 69.966H32.2007Z" fill="#FF002D"/>
<path d="M54.2095 72.0547C52.8336 70.7551 50.6178 69.966 48.2993 69.966C43.892 69.966 40.7589 72.7421 40.7589 76.6653C40.7589 80.5885 43.892 83.3647 48.2993 83.3647C50.6168 83.3647 52.8336 82.5745 54.2095 81.276V83.0332H57.8266V70.2965H54.2095V72.0537V72.0547ZM54.0051 78.3463C52.9353 79.4923 51.2289 80.1035 49.0884 80.1035C46.2614 80.1035 44.5794 78.8049 44.5794 76.6643C44.5794 74.5237 46.2604 73.2252 49.0884 73.2252C51.2279 73.2252 52.9353 73.8363 54.0051 74.9824V78.3442V78.3463Z" fill="#FF002D"/>
<path d="M94.3801 72.0547V70.2975H90.7629V83.0342H94.5834V74.7302C95.1946 73.7112 96.3661 73.2272 98.2768 73.2272C99.1941 73.2272 99.9832 73.3035 100.722 73.4814L101.029 70.1958C100.697 70.0433 100.06 69.967 99.1686 69.967C97.1308 69.967 95.3227 70.7571 94.3801 72.0557V72.0547Z" fill="#FF002D"/>
<path d="M115.65 79.11C114.197 79.8482 111.982 80.3069 109.995 80.3069C106.684 80.3069 105.155 79.5167 104.9 77.6833H116.567C116.668 76.9704 116.719 76.5372 116.719 76.0023C116.719 72.4361 113.713 69.965 109.358 69.965C104.263 69.965 101.283 72.4106 101.283 76.6389C101.283 80.8672 104.314 83.3637 109.766 83.3637C112.797 83.3637 115.573 82.6 117 81.5302L115.65 79.11ZM109.358 72.7676C111.778 72.7676 113.153 73.6085 113.408 75.2386H104.9C105.181 73.5069 106.53 72.7676 109.358 72.7676Z" fill="#FF002D"/>
<path d="M79.3503 70.4246V83.0332H83.1708V73.3533H88.8512V70.2965H83.1708V70.0423C83.1708 68.3868 84.0626 67.7502 86.3801 67.7502C87.1184 67.7502 88.4434 67.8773 89.9464 68.1071L90.2017 65.4072C88.9529 65.0503 87.5781 64.8723 85.9988 64.8723C81.5661 64.8723 79.3503 66.7068 79.3503 70.4256V70.4246Z" fill="#FF002D"/>
<path d="M69.9002 69.966C67.5817 69.966 65.3659 70.7561 63.99 72.0547V70.2975H60.3729V87.2624H64.1934V81.276C65.5184 82.5756 67.658 83.3647 69.8992 83.3647C74.3065 83.3647 77.4395 80.5885 77.4395 76.6653C77.4395 72.7421 74.3065 69.966 69.8992 69.966H69.9002ZM69.1101 80.1035C66.9706 80.1035 65.2642 79.4923 64.1944 78.3463V74.9844C65.2642 73.8384 66.9706 73.2272 69.1101 73.2272C71.9381 73.2272 73.619 74.5258 73.619 76.6664C73.619 78.8069 71.9381 80.1055 69.1101 80.1055V80.1035Z" fill="#FF002D"/>
<path d="M70.3334 45.7821C70.3334 42.5728 67.7607 40 64.5259 40C61.2912 40 58.693 42.5473 58.693 45.7821C58.693 48.788 60.3231 51.7432 63.2782 54.1624L63.1765 54.2132C54.8979 50.0866 51.2808 48.6853 48.886 48.6853C47.1796 48.6853 45.9817 49.8822 45.9817 51.5642C45.9817 55.0796 50.2608 58.4923 54.6681 58.4923C62.1576 58.4923 70.3334 51.8438 70.3334 45.7811V45.7821Z" fill="#FF002D"/>
<path d="M80.1404 48.6864C77.3897 48.6864 73.9252 50.3419 65.672 55.6145C69.6206 57.7032 71.989 58.4933 74.3329 58.4933C78.7402 58.4933 83.0193 55.0796 83.0193 51.5652C83.0193 49.8843 81.8224 48.6864 80.1404 48.6864Z" fill="#FF002D"/>
</g>
<defs>
<clipPath id="clip0_1_4">
<rect width="128" height="128" fill="white"/>
</clipPath>
</defs>
</svg>
