<svg width="128" height="128" viewBox="0 0 128 128" fill="none" xmlns="http://www.w3.org/2000/svg">
<g clip-path="url(#clip0_1_5)">
<rect width="128" height="128" fill="white"/>
<path d="M33.4209 54.56C33.2109 54.2275 32.8435 54 32.441 54H27.2962C27.0162 54 26.8237 54.315 26.9812 54.56L33.7884 66.3545C33.9634 66.652 33.9634 67.037 33.7884 67.3519L30.4286 73.2142C30.0436 73.8792 29.0811 73.8792 28.6961 73.2142L21.8889 61.4372C21.8539 61.3672 21.7314 61.3672 21.7139 61.4372L18.6866 66.6695C18.6166 66.7745 18.6166 66.932 18.6866 67.037L25.7038 79.1989C25.8963 79.5139 26.2287 79.7064 26.5962 79.7064H32.4235C32.826 79.7064 33.1935 79.4964 33.4034 79.1465L40.1757 67.4219C40.3682 67.0895 40.3682 66.6345 40.1757 66.302L33.4209 54.56Z" fill="#4F9237"/>
<path d="M17.5316 67.3519C17.3566 67.0545 17.3566 66.6695 17.5316 66.3545L20.9265 60.4922C21.3114 59.8273 22.2739 59.8273 22.6589 60.4922L29.4486 72.2692C29.4836 72.3392 29.6061 72.3392 29.6236 72.2692L32.651 67.037C32.721 66.932 32.721 66.7745 32.651 66.6695L25.5988 54.5075C25.4413 54.1925 25.1088 54 24.7238 54H18.8965C18.4941 54 18.1266 54.21 17.9166 54.56L11.1444 66.2845C10.9519 66.617 10.9519 67.072 11.1444 67.4044L17.9166 79.129C18.1091 79.4614 18.4941 79.6889 18.8965 79.6889H24.0238C24.3038 79.6889 24.4963 79.3739 24.3388 79.129L17.5316 67.3519Z" fill="#4F9237"/>
<path d="M87.0037 64.727H78.5691C78.1141 64.727 77.7641 64.3596 77.7641 63.9221V59.8797C77.7641 59.4248 78.1316 59.0748 78.5691 59.0748H87.8437C88.2987 59.0748 88.6486 58.7073 88.6486 58.2698V54.8225C88.6486 54.3675 88.2812 54.0175 87.8437 54.0175H72.6718C72.2168 54.0175 71.8668 54.385 71.8668 54.8225V78.9015C71.8668 79.3564 72.2343 79.7064 72.6718 79.7064H76.9591C77.4141 79.7064 77.7641 79.3389 77.7641 78.9015V70.4318C77.7641 69.9768 78.1316 69.6268 78.5691 69.6268H87.0037C87.4587 69.6268 87.8087 69.2594 87.8087 68.8219V65.567C87.8087 65.0945 87.4587 64.727 87.0037 64.727Z" fill="#4F9237"/>
<path d="M101.651 54H93.076C92.621 54 92.271 54.3675 92.271 54.805V78.884C92.271 79.3389 92.6385 79.6889 93.076 79.6889H97.4158C97.8708 79.6889 98.2207 79.3214 98.2207 78.884V70.7118C98.2207 70.2568 98.5882 69.9068 99.0257 69.9068H101.493C104.573 69.9068 107.128 69.2244 108.878 67.9119C110.733 66.5295 111.993 64.4821 111.993 61.8572C111.993 55.3649 106.235 54 101.651 54ZM101.038 65.1995H99.0607C98.6057 65.1995 98.2557 64.832 98.2557 64.3946V59.5823C98.2557 59.1273 98.6232 58.7773 99.0607 58.7773H101.161C103.121 58.7773 105.71 59.0923 105.71 61.9097C105.693 63.4146 104.888 65.1995 101.038 65.1995Z" fill="#4F9237"/>
<path d="M61.5248 70.5718L52.3202 54.63C52.3202 54.63 52.0052 54.0175 51.2527 54.0175H46.1429C45.6879 54.0175 45.3379 54.385 45.3379 54.8225V78.9015C45.3379 79.3564 45.7054 79.7064 46.1429 79.7064H49.9753C50.4302 79.7064 50.7802 79.3389 50.7802 78.9015C50.7627 75.1741 50.6577 63.0646 50.6577 63.0646L59.9323 79.0939C59.9323 79.0939 60.2473 79.7064 60.9998 79.7064H66.0221C66.4771 79.7064 66.827 79.3389 66.827 78.9015V54.8225C66.827 54.3675 66.4596 54.0175 66.0221 54.0175H62.1897C61.7348 54.0175 61.3848 54.385 61.3848 54.8225C61.4023 58.3923 61.5248 70.5718 61.5248 70.5718Z" fill="#4F9237"/>
<path d="M114.338 56.5199C114.338 56.5374 114.355 56.7299 114.373 56.9049C114.39 57.0274 114.408 57.1674 114.408 57.2199H114.863C114.828 57.1149 114.775 56.8874 114.758 56.6949V56.6249C114.688 56.1699 114.583 56.1699 114.373 56.1524C114.373 56.1524 114.793 56.0824 114.793 55.5924C114.793 55.015 114.303 55.015 114.023 55.015H113.27V57.1849H113.673V56.2924H114.075C114.25 56.3099 114.32 56.3624 114.338 56.5199ZM113.69 55.9774V55.3124H114.075C114.198 55.3124 114.408 55.3124 114.408 55.6274C114.408 55.7149 114.39 55.9599 114.04 55.9599H113.69V55.9774Z" fill="#4F9237"/>
<path d="M114.023 58.0948C115.108 58.0773 116 57.2024 116 56.0999C116 55.015 115.108 54.1225 114.023 54.1225C112.938 54.1225 112.045 55.015 112.045 56.0999C112.045 57.1849 112.92 58.0773 114.023 58.0948ZM114.005 57.7973C113.06 57.7973 112.325 57.0274 112.325 56.0999C112.325 55.155 113.078 54.42 114.005 54.42C114.933 54.42 115.703 55.1725 115.703 56.0999C115.703 57.0274 114.933 57.7973 114.005 57.7973Z" fill="#4F9237"/>
</g>
<defs>
<clipPath id="clip0_1_5">
<rect width="128" height="128" fill="white"/>
</clipPath>
</defs>
</svg>
