<svg width="128" height="128" viewBox="0 0 128 128" fill="none" xmlns="http://www.w3.org/2000/svg">
<rect width="128" height="128" fill="white"/>
<path d="M41.6145 58.1732C36.0482 58.1732 31.494 62.7273 31.494 68.2935C31.494 73.8596 36.0482 78.4138 41.6145 78.4138C47.1807 78.4138 51.7349 73.8596 51.7349 68.2935C51.7349 62.7273 47.1807 58.1732 41.6145 58.1732ZM46.5482 68.167C46.5482 70.95 44.3976 73.2271 41.741 73.2271C39.0843 73.2271 36.9337 70.95 36.9337 68.167C36.9337 65.3839 39.0843 63.1068 41.741 63.1068C44.3976 63.1068 46.5482 65.3839 46.5482 68.167ZM77.0362 58.5527C76.9097 58.4262 76.7831 58.4262 76.6566 58.4262H72.6084C72.3554 58.4262 72.1024 58.6792 72.1024 58.9322V77.2752C72.1024 77.4017 72.1024 77.5282 72.2289 77.6547C72.3554 77.7812 72.4819 77.7812 72.6084 77.7812H76.6566C76.9097 77.7812 77.1627 77.5282 77.1627 77.2752V58.9322C77.1627 58.8057 77.1627 58.6792 77.0362 58.5527ZM74.6325 56.0226C76.1506 56.0226 77.4157 54.7576 77.4157 53.2395C77.5422 51.7215 76.1506 50.4565 74.6325 50.4565C73.1145 50.4565 71.8494 51.7215 71.8494 53.2395C71.8494 54.8841 73.1145 56.0226 74.6325 56.0226ZM69.1928 50.836H54.3916C54.1386 50.836 53.8856 51.089 53.8856 51.342V77.2752C53.8856 77.4017 53.8855 77.5282 54.0121 77.6547C54.1386 77.7812 54.2651 77.7812 54.3916 77.7812H58.4398C58.6928 77.7812 58.9458 77.5282 58.9458 77.2752V66.7754H68.0542C68.1807 66.7754 68.3072 66.7754 68.4337 66.6489C68.5603 66.5224 68.5602 66.3959 68.5602 66.2694V62.4743C68.5602 62.2213 68.3072 61.9683 68.0542 61.9683H58.9458V55.6431H69.1928C69.3193 55.6431 69.4458 55.6431 69.5723 55.5166C69.6988 55.3901 69.6988 55.2636 69.6988 55.1371V51.342C69.6988 51.089 69.4458 50.836 69.1928 50.836ZM22.006 62.0948C17.9578 60.3237 16.6928 59.5647 16.6928 58.0467C16.6928 56.0226 18.5904 55.3901 20.3614 55.3901C22.259 55.3901 24.2831 56.4021 24.2831 59.1852C24.2831 59.4382 24.4096 59.5647 24.6627 59.5647H29.0904C29.2169 59.4382 29.3434 59.3117 29.3434 59.1852C29.3434 54.1251 25.6747 50.4565 20.3614 50.4565C15.0482 50.4565 11.6325 53.4925 11.6325 58.0467C11.6325 63.4863 15.6807 65.1309 19.6024 66.6489L19.8554 66.7754C23.5241 68.167 24.7892 68.7995 24.7892 70.5705C24.7892 72.9741 22.259 73.3536 20.8675 73.3536C18.2108 73.3536 16.1867 71.4561 16.1867 68.926V68.673C16.1867 68.42 16.0602 68.2935 15.8072 68.2935H11.3795C11.253 68.2935 11 68.42 11 68.673V69.0525C11 74.6187 15.0482 78.4138 20.741 78.4138C26.1807 78.4138 29.8494 75.2512 29.8494 70.697C29.9759 66.0164 27.5723 64.3719 22.006 62.0948ZM116 77.0222C116 77.7812 115.494 78.2873 114.735 78.2873C113.976 78.2873 113.47 77.7812 113.47 77.0222C113.47 76.2632 113.976 75.7572 114.735 75.7572C115.494 75.7572 116 76.2632 116 77.0222ZM113.723 77.0222C113.723 77.6547 114.102 78.0343 114.735 78.0343C115.367 78.0343 115.747 77.6547 115.747 77.0222C115.747 76.3897 115.367 76.0102 114.735 76.0102C114.102 76.0102 113.723 76.3897 113.723 77.0222ZM115.241 76.7692C115.241 76.8957 115.114 77.0222 114.988 77.1487L115.241 77.6547H114.861L114.608 77.1487H114.482V77.6547H114.229V76.3897H114.735C114.988 76.3897 115.241 76.5162 115.241 76.7692ZM114.608 76.6427V77.0222H114.735C114.861 77.0222 114.988 76.8957 114.988 76.8957C114.988 76.7692 114.861 76.7692 114.735 76.7692H114.608V76.6427ZM109.422 51.595C111.193 51.595 112.584 52.9865 112.584 54.7576C112.584 56.5286 111.193 57.9202 109.422 57.9202C107.651 57.9202 106.259 56.5286 106.259 54.7576C106.259 52.9865 107.651 51.595 109.422 51.595ZM109.422 50.4565C107.018 50.4565 104.994 52.4805 104.994 54.8841C104.994 57.2877 107.018 59.3117 109.422 59.3117C111.825 59.3117 113.849 57.2877 113.849 54.8841C113.849 52.4805 111.825 50.4565 109.422 50.4565Z" fill="#00A2C7"/>
<path d="M111.53 68.2505C113.678 67.0823 114.472 64.3938 113.304 62.2456C112.136 60.0974 109.447 59.3029 107.299 60.4712C105.151 61.6394 104.356 64.3279 105.525 66.4761C106.693 68.6243 109.381 69.4187 111.53 68.2505Z" fill="#00A2C7"/>
<path d="M111.523 77.7386C113.672 76.5704 114.466 73.8819 113.298 71.7337C112.13 69.5855 109.441 68.791 107.293 69.9593C105.144 71.1275 104.35 73.816 105.518 75.9642C106.687 78.1124 109.375 78.9069 111.523 77.7386Z" fill="#00A2C7"/>
<path d="M99.9338 61.2093C100.819 61.2093 101.578 61.5888 102.211 62.0948C102.843 62.7273 103.096 63.4863 103.096 64.3719C103.096 66.1429 101.705 67.5345 99.9338 67.5345C99.0482 67.5345 98.2892 67.1549 97.6566 66.6489C97.0241 66.0164 96.7711 65.2574 96.7711 64.3719C96.6446 62.6008 98.1627 61.2093 99.9338 61.2093ZM99.9338 59.9442C97.5301 59.9442 95.506 61.9683 95.506 64.3719C95.506 66.7754 97.5301 68.7995 99.9338 68.7995C102.337 68.7995 104.361 66.7754 104.361 64.3719C104.361 61.9683 102.337 59.9442 99.9338 59.9442Z" fill="#00A2C7"/>
<path d="M94.4647 66.1298C95.455 63.894 94.4453 61.2787 92.2095 60.2884C89.9736 59.2981 87.3583 60.3078 86.368 62.5436C85.3776 64.7794 86.3873 67.3947 88.6232 68.385C90.859 69.3753 93.4744 68.3656 94.4647 66.1298Z" fill="#00A2C7"/>
<path d="M103.972 56.6461C104.962 54.4103 103.952 51.795 101.717 50.8047C99.4806 49.8144 96.8653 50.824 95.875 53.0598C94.8847 55.2957 95.8944 57.9109 98.1302 58.9012C100.366 59.8916 102.981 58.8819 103.972 56.6461Z" fill="#00A2C7"/>
<path d="M94.4762 56.6345C95.4666 54.3987 94.4569 51.7834 92.221 50.7931C89.9852 49.8028 87.3698 50.8125 86.3795 53.0483C85.3892 55.2841 86.3989 57.8994 88.6347 58.8897C90.8706 59.88 93.4859 58.8703 94.4762 56.6345Z" fill="#00A2C7"/>
<path d="M103.949 75.6367C104.939 73.4009 103.929 70.7856 101.693 69.7953C99.4575 68.805 96.8422 69.8146 95.8519 72.0505C94.8615 74.2863 95.8712 76.9015 98.1071 77.8919C100.343 78.8822 102.958 77.8725 103.949 75.6367Z" fill="#00A2C7"/>
<path d="M90.4458 70.697C91.3313 70.697 92.0904 71.0766 92.7229 71.5826C93.3554 72.2151 93.6084 72.9741 93.6084 73.8596C93.6084 75.6307 92.2169 77.0222 90.4458 77.0222C88.6747 77.0222 87.2831 75.6307 87.2831 73.8596C87.1566 72.0886 88.6747 70.697 90.4458 70.697ZM90.4458 69.432C88.0422 69.432 86.0181 71.4561 86.0181 73.8596C86.0181 76.2632 88.0422 78.2873 90.4458 78.2873C92.8494 78.2873 94.8735 76.2632 94.8735 73.8596C94.8735 71.4561 92.8494 69.432 90.4458 69.432Z" fill="#00A2C7"/>
</svg>
