<svg width="512" height="512" viewBox="0 0 512 512" fill="none" xmlns="http://www.w3.org/2000/svg">
<circle cx="256" cy="256" r="256" fill="#2E1969"/>
<path d="M216.922 154V190.2L141.872 296.977H219L214.066 335H85V299.321L162.128 190.981H92.531V154H216.922Z" fill="#DB3A87"/>
<path d="M362 219L344.064 335H304.04L291.751 249.043L278.465 335H239.438L222 219H252.558L262.024 312.134L276.14 219H308.358L320.98 312.134L332.605 219H362Z" fill="#DB3A87"/>
<path d="M418 275.564C418 287.576 415.723 297.447 411.168 305.178C406.752 313.048 401.025 319.192 393.986 323.61C387.085 328.028 378.805 331.825 369.144 335L359 308.078C364.935 305.731 369.351 302.969 372.249 299.794C375.285 296.757 377.287 293.305 378.253 289.439C379.219 285.436 379.702 280.327 379.702 274.114V154H418V275.564Z" fill="#DB3A87"/>
<path d="M205.922 166V202.2L130.872 308.977H208L203.066 347H74V311.321L151.128 202.981H81.531V166H205.922Z" fill="#00A3DA"/>
<path d="M351 231L333.064 347H293.04L280.751 261.043L267.465 347H228.438L211 231H241.558L251.024 324.134L265.14 231H297.358L309.98 324.134L321.605 231H351Z" fill="#00A3DA"/>
<path d="M407 287.564C407 299.576 404.723 309.447 400.168 317.178C395.752 325.048 390.025 331.192 382.986 335.61C376.085 340.028 367.805 343.825 358.144 347L348 320.078C353.935 317.731 358.351 314.969 361.249 311.794C364.285 308.757 366.287 305.305 367.253 301.439C368.219 297.436 368.702 292.327 368.702 286.114V166H407V287.564Z" fill="#00A3DA"/>
<path d="M210.922 159V195.2L135.872 301.977H213L208.066 340H79V304.321L156.128 195.981H86.531V159H210.922Z" fill="white"/>
<path d="M356 224L338.064 340H298.04L285.751 254.043L272.465 340H233.438L216 224H246.558L256.024 317.134L270.14 224H302.358L314.98 317.134L326.605 224H356Z" fill="white"/>
<path d="M412 280.564C412 292.576 409.723 302.447 405.168 310.178C400.752 318.048 395.025 324.192 387.986 328.61C381.085 333.028 372.805 336.825 363.144 340L353 313.078C358.935 310.731 363.351 307.969 366.249 304.794C369.285 301.757 371.287 298.305 372.253 294.439C373.219 290.436 373.702 285.327 373.702 279.114V159H412V280.564Z" fill="white"/>
</svg>
